<svg xmlns="http://www.w3.org/2000/svg" xmlns:xlink="http://www.w3.org/1999/xlink" width="160.25" height="166.754" viewBox="0 0 160.25 166.754">
  <defs>
    <filter id="Trazado_2" x="47.284" y="43.202" width="90.107" height="123.224" filterUnits="userSpaceOnUse">
      <feOffset dy="3" input="SourceAlpha"/>
      <feGaussianBlur stdDeviation="3" result="blur"/>
      <feFlood flood-opacity="0.659"/>
      <feComposite operator="in" in2="blur"/>
      <feComposite in="SourceGraphic"/>
    </filter>
    <linearGradient id="linear-gradient" x1="0.5" x2="0.5" y2="1" gradientUnits="objectBoundingBox">
      <stop offset="0" stop-color="#fa65a4"/>
      <stop offset="1" stop-color="#e41072"/>
    </linearGradient>
    <filter id="Trazado_4" x="5.447" y="5.551" width="154.802" height="161.203" filterUnits="userSpaceOnUse">
      <feOffset dy="12" input="SourceAlpha"/>
      <feGaussianBlur stdDeviation="3" result="blur-2"/>
      <feFlood flood-opacity="0.161"/>
      <feComposite operator="in" in2="blur-2"/>
      <feComposite in="SourceGraphic"/>
    </filter>
    <filter id="Trazado_3" x="45.163" y="0" width="114.403" height="163.172" filterUnits="userSpaceOnUse">
      <feOffset dy="3" input="SourceAlpha"/>
      <feGaussianBlur stdDeviation="3" result="blur-3"/>
      <feFlood flood-opacity="0.631"/>
      <feComposite operator="in" in2="blur-3"/>
      <feComposite in="SourceGraphic"/>
    </filter>
    <filter id="Elipse_1" x="0" y="91.227" width="35" height="35" filterUnits="userSpaceOnUse">
      <feOffset dy="3" input="SourceAlpha"/>
      <feGaussianBlur stdDeviation="3" result="blur-4"/>
      <feFlood flood-opacity="0.471"/>
      <feComposite operator="in" in2="blur-4"/>
      <feComposite in="SourceGraphic"/>
    </filter>
  </defs>
  <g id="Grupo_25" data-name="Grupo 25" transform="translate(-633.875 -466.517)">
    <g id="Grupo_10" data-name="Grupo 10" transform="translate(642.875 472.068)">
      <g id="Grupo_8" data-name="Grupo 8" transform="translate(3.621 43.651)">
        <path id="Trazado_1" data-name="Trazado 1" d="M1.637,0,15.48,7.847l-.688,96.534L0,112.58Z" transform="matrix(0.875, 0.485, -0.485, 0.875, 54.58, 0)" fill="#6d1dc9"/>
        <g transform="matrix(1, 0, 0, 1, -12.62, -49.2)" filter="url(#Trazado_2)">
          <path id="Trazado_2-2" data-name="Trazado 2" d="M14.5,0,0,7.877l.721,96.905,15.5,8.231Z" transform="translate(56.28 57.55) rotate(-31)" fill="#6d1dc9"/>
        </g>
      </g>
      <g id="Grupo_9" data-name="Grupo 9" transform="translate(5.447 0)">
        <g transform="matrix(1, 0, 0, 1, -14.45, -5.55)" filter="url(#Trazado_4)">
          <path id="Trazado_4-2" data-name="Trazado 4" d="M.9,0l14.28,10.229s-.246,40.1,1.8,58.931S34.625,93.18,39.4,91.963,82.531,69.117,82.531,69.117l14.214,7.739s-43.824,25.934-46.852,27.05a40.367,40.367,0,0,1-19.845,1.474c-7.373-1.509-14.975-7.3-19.378-11.054C5.5,89.917,2.46,81.981.728,74.318S.9,0,.9,0Z" transform="translate(67.47 5.55) rotate(30)" fill="url(#linear-gradient)"/>
        </g>
        <g transform="matrix(1, 0, 0, 1, -14.45, -5.55)" filter="url(#Trazado_3)">
          <path id="Trazado_3-2" data-name="Trazado 3" d="M1.1,8.082,16.751,0,13.8,159.3,0,152.857Z" transform="translate(54.16 14.63) rotate(-31)" fill="url(#linear-gradient)"/>
        </g>
      </g>
      <g transform="matrix(1, 0, 0, 1, -9, -5.55)" filter="url(#Elipse_1)">
        <ellipse id="Elipse_1-2" data-name="Elipse 1" cx="8.5" cy="8.5" rx="8.5" ry="8.5" transform="translate(9 97.23)" fill="#6b1cc8"/>
      </g>
    </g>
  </g>
</svg>
