<svg xmlns="http://www.w3.org/2000/svg" width="341" height="142" viewBox="0 0 341 142">
  <g id="Grupo_6" data-name="Grupo 6" transform="translate(-223 -318)">
    <g id="Grupo_5" data-name="Grupo 5" transform="translate(0 198)">
      <g id="Grupo_3" data-name="Grupo 3">
        <g id="Grupo_1" data-name="Grupo 1">
          <path id="Trazado_1" data-name="Trazado 1" d="M0,0H33V95.372L0,87.053Z" transform="translate(223 140)" fill="#232657"/>
          <path id="Trazado_2" data-name="Trazado 2" d="M0,0H33V111.7L0,101.953Z" transform="translate(288 140.314)" fill="#232657"/>
          <rect id="Rectángulo_1" data-name="Rectángulo 1" width="63" height="33" transform="translate(242 170)" fill="#232657"/>
        </g>
        <g id="Grupo_2" data-name="Grupo 2">
          <path id="Trazado_3" data-name="Trazado 3" d="M0,0H32V119L0,110.967Z" transform="translate(331 143)" fill="#232657"/>
          <path id="Trazado_4" data-name="Trazado 4" d="M0,0H33V110.967L0,119Z" transform="translate(423 143)" fill="#232657"/>
          <path id="Trazado_9" data-name="Trazado 9" d="M0,0,34.956,1.562,33.348,76H0Z" transform="translate(338.292 167.389) rotate(-47)" fill="#232657"/>
          <rect id="Rectángulo_3" data-name="Rectángulo 3" width="31" height="57" transform="translate(422.581 143) rotate(43)" fill="#232657"/>
        </g>
      </g>
      <g id="Grupo_4" data-name="Grupo 4" transform="translate(0 0.579)">
        <path id="Trazado_5" data-name="Trazado 5" d="M0,0H32V102.688L0,110Z" transform="translate(465 140)" fill="#232657"/>
        <path id="Trazado_6" data-name="Trazado 6" d="M0,0H32V88.056L0,96Z" transform="translate(532 140)" fill="#232657"/>
        <rect id="Rectángulo_4" data-name="Rectángulo 4" width="36.458" height="56.322" transform="translate(473.081 167.515) rotate(-49)" fill="#232657"/>
        <path id="Trazado_7" data-name="Trazado 7" d="M-.819.823,21,0V48H0Z" transform="translate(533.151 140) rotate(45)" fill="#232657"/>
      </g>
    </g>
    <path id="Trazado_8" data-name="Trazado 8" d="M0,0H146.685l23.488,20.7L196.108,0H341" transform="translate(223 323.5)" fill="none" stroke="#e51a22" stroke-width="11"/>
  </g>
</svg>
