<svg xmlns="http://www.w3.org/2000/svg" xmlns:xlink="http://www.w3.org/1999/xlink" width="538" height="607" viewBox="0 0 538 607">
  <defs>
    <filter id="Trazado_1">
      <feOffset dy="3" input="SourceAlpha"/>
      <feGaussianBlur stdDeviation="3" result="blur"/>
      <feFlood flood-color="#161414" flood-opacity="0.161" result="color"/>
      <feComposite operator="out" in="SourceGraphic" in2="blur"/>
      <feComposite operator="in" in="color"/>
      <feComposite operator="in" in2="SourceGraphic"/>
    </filter>
  </defs>
  <g id="Grupo_2" data-name="Grupo 2" transform="translate(-900 -198)">
    <g id="Grupo_1" data-name="Grupo 1" transform="translate(62 16)">
      <rect id="Rectángulo_1" data-name="Rectángulo 1" width="538" height="607" transform="translate(838 182)" fill="#fe0000"/>
      <g data-type="innerShadowGroup">
        <path id="Trazado_1-2" data-name="Trazado 1" d="M-.671,0H93.056L200.515,154.42,308.919,0h94.246L248.3,220.348l-.885,252.1H152.285L154.5,223.334Z" transform="translate(905.753 255.278)" fill="#0577b3"/>
        <g transform="matrix(1, 0, 0, 1, 838, 182)" filter="url(#Trazado_1)">
          <path id="Trazado_1-3" data-name="Trazado 1" d="M-.671,0H93.056L200.515,154.42,308.919,0h94.246L248.3,220.348l-.885,252.1H152.285L154.5,223.334Z" transform="translate(67.75 73.28)" fill="#fff"/>
        </g>
      </g>
      <path id="Trazado_2" data-name="Trazado 2" d="M.319-2.5l122.53,175.115V316.928l-42.2-59.223L81,414H0Z" transform="translate(910.329 307.722)" fill="#fff"/>
      <path id="Trazado_3" data-name="Trazado 3" d="M122.167-2.5,0,172.616V316.928l42.08-59.223L41.725,414h80.76Z" transform="translate(1191.68 313.722)" fill="#fff"/>
    </g>
  </g>
</svg>
